Coordinates
version=1
nRows=22
nColumns=24
inDegrees=yes

Units are S.I. units (second, meters, Newtons, ...)
Angles are in degrees.

endheader
time	pelvis_tilt	pelvis_list	pelvis_rotation	pelvis_tx	pelvis_ty	pelvis_tz	hip_flexion_r	hip_adduction_r	hip_rotation_r	knee_angle_r	ankle_angle_r	subtalar_angle_r	mtp_angle_r	hip_flexion_l	hip_adduction_l	hip_rotation_l	knee_angle_l	ankle_angle_l	subtalar_angle_l	mtp_angle_l	lumbar_extension	lumbar_bending	lumbar_rotation
      6.10000000	     -3.29390325	      8.42788960	     -7.58179647	      1.88498820	      1.01733282	     -0.28893074	      8.78947030	    -13.14714031	     -4.02505950	    -61.07430855	    -13.74711482	     -0.31613157	      0.00000000	     18.19891526	     10.70779660	     -7.07973260	    -15.85446332	      8.73369213	     -8.82398562	      0.00000000	     -7.53590283	    -11.37332026	      2.51389506
      6.10500000	     -3.23960599	      8.51991047	     -7.61061073	      1.89150819	      1.01799851	     -0.28917955	      9.54482821	    -13.21717716	     -3.89062901	    -61.95635289	    -12.66087662	     -0.36209660	      0.00000000	     17.61586624	     10.91529309	     -6.95118776	    -15.56789129	      8.98738200	     -8.86883261	      0.00000000	     -7.53981515	    -11.42816912	      2.36347624
      6.11000000	     -3.19129023	      8.59792757	     -7.64712689	      1.89794700	      1.01868107	     -0.28945036	     10.30659357	    -13.26305953	     -3.75182123	    -62.77956115	    -11.36763707	     -0.28922306	      0.00000000	     17.02706975	     11.11769852	     -6.77607190	    -15.24304126	      9.12500788	     -9.06636436	      0.00000000	     -7.54912352	    -11.46222454	      2.25372867
      6.11500000	     -3.13247181	      8.63853823	     -7.62584050	      1.90438825	      1.01941986	     -0.28975713	     11.01398248	    -13.27195359	     -3.68824491	    -63.51574889	     -9.93106050	     -0.12067363	      0.00000000	     16.40953141	     11.29649348	     -6.54488032	    -14.91041712	      9.27120445	     -9.21964859	      0.00000000	     -7.58002226	    -11.45131907	      2.07392897
      6.12000000	     -3.08379579	      8.61006076	     -7.56608927	      1.91081184	      1.02020286	     -0.29004404	     11.68953545	    -13.19335326	     -3.66458236	    -64.16107228	     -8.40723541	      0.12509874	      0.00000000	     15.78771598	     11.40286034	     -6.29257233	    -14.58422649	      9.46498029	     -9.28361167	      0.00000000	     -7.61235710	    -11.36363837	      1.85233865
      6.12500000	     -3.01476338	      8.63946902	     -7.51463484	      1.91726192	      1.02097644	     -0.29046094	     12.35388045	    -13.20562240	     -3.67233439	    -64.75697067	     -6.80677385	      0.40546230	      0.00000000	     15.12041299	     11.59685739	     -5.93803275	    -14.17895795	      9.47227002	     -9.63057921	      0.00000000	     -7.65059251	    -11.32721887	      1.66086686
      6.13000000	     -2.96240383	      8.58955001	     -7.41123279	      1.92365535	      1.02179391	     -0.29085059	     12.98698799	    -13.12039990	     -3.73776198	    -65.25753265	     -5.19865671	      0.70467280	      0.00000000	     14.47088728	     11.69944573	     -5.60290542	    -13.81159057	      9.54375029	     -9.82579115	      0.00000000	     -7.69479784	    -11.20379553	      1.43306049
      6.13500000	     -2.90737337	      8.53540961	     -7.29957545	      1.93007326	      1.02261328	     -0.29127099	     13.60217963	    -13.03392050	     -3.82450911	    -65.68726726	     -3.62127151	      0.99683456	      0.00000000	     13.79425543	     11.80375992	     -5.19808978	    -13.40398875	      9.57270582	    -10.08792822	      0.00000000	     -7.73446759	    -11.07162175	      1.19232478
      6.14000000	     -2.85889709	      8.44921823	     -7.16693596	      1.93646349	      1.02344049	     -0.29171274	     14.20067444	    -12.91315557	     -3.94681983	    -66.04070512	     -2.09906982	      1.26513118	      0.00000000	     13.12077148	     11.87177505	     -4.79802168	    -13.00044903	      9.60363445	    -10.33045708	      0.00000000	     -7.77530433	    -10.89794592	      0.94131602
      6.14500000	     -2.79621299	      8.36318726	     -7.02355881	      1.94285585	      1.02427070	     -0.29218930	     14.77304059	    -12.79803510	     -4.09353277	    -66.32865348	     -0.67098400	      1.47605633	      0.00000000	     12.40649929	     11.94700495	     -4.28686226	    -12.55416311	      9.58790957	    -10.65235120	      0.00000000	     -7.83314100	    -10.72524084	      0.66952764
      6.15000000	     -2.74408377	      8.24455328	     -6.85853658	      1.94921686	      1.02510601	     -0.29266261	     15.33097440	    -12.64602702	     -4.27679820	    -66.53879649	      0.67456400	      1.64815746	      0.00000000	     11.70832753	     11.97768258	     -3.82338149	    -12.12703175	      9.58034850	    -10.91137350	      0.00000000	     -7.88745531	    -10.51438170	      0.40279271
      6.15500000	     -2.73456958	      8.07608527	     -6.72575806	      1.95548329	      1.02589540	     -0.29299080	     15.93241773	    -12.40037060	     -4.41436362	    -66.68229736	      1.90677991	      1.77453763	      0.00000000	     11.07600022	     11.91974567	     -3.49224845	    -11.74198364	      9.66820789	    -10.99626158	      0.00000000	     -7.90204198	    -10.25898262	      0.20187091
      6.16000000	     -2.66691665	      7.96053775	     -6.47812337	      1.96187913	      1.02673386	     -0.29363742	     16.42260979	    -12.29148399	     -4.72439199	    -66.75226905	      3.07088060	      1.86398379	      0.00000000	     10.33435234	     11.97032192	     -2.91303546	    -11.27314882	      9.52820781	    -11.39446094	      0.00000000	     -7.97534010	    -10.03447146	     -0.15429194
      6.16500000	     -2.61430214	      7.79647584	     -6.28722369	      1.96818814	      1.02753844	     -0.29410958	     16.93504327	    -12.08682387	     -4.96473069	    -66.76045094	      4.10937870	      1.89939632	      0.00000000	      9.61895747	     11.93561834	     -2.41603498	    -10.82652612	      9.48981198	    -11.65823418	      0.00000000	     -8.03943097	     -9.77221514	     -0.42402773
      6.17000000	     -2.55409812	      7.62937840	     -6.08707276	      1.97445812	      1.02831251	     -0.29458841	     17.43131290	    -11.88135520	     -5.22555983	    -66.71237962	      5.05491582	      1.89059885	      0.00000000	      8.89090905	     11.89384754	     -1.87240212	    -10.37065541	      9.44320450	    -11.95125995	      0.00000000	     -8.11941352	     -9.50907380	     -0.70032086
      6.17500000	     -2.50294702	      7.44785533	     -5.87974696	      1.98071817	      1.02906830	     -0.29505039	     17.91822122	    -11.65609242	     -5.49628539	    -66.59590586	      5.94199672	      1.88683787	      0.00000000	      8.17435897	     11.82610749	     -1.37039439	     -9.91736975	      9.38101006	    -12.22197374	      0.00000000	     -8.18731667	     -9.22902610	     -0.97640681
      6.18000000	     -2.46649195	      7.25247811	     -5.66376610	      1.98694523	      1.02978981	     -0.29549562	     18.40426866	    -11.40815163	     -5.76884743	    -66.41458749	      6.78067502	      1.90162455	      0.00000000	      7.47856492	     11.73324388	     -0.90820676	     -9.46938579	      9.31208474	    -12.47038792	      0.00000000	     -8.24454127	     -8.93422246	     -1.25509565
      6.18500000	     -2.46951137	      7.05436124	     -5.52563675	      1.99309062	      1.03038451	     -0.29574954	     18.95568370	    -11.11079743	     -5.94560378	    -66.19359433	      7.58973269	      1.93587829	      0.00000000	      6.85022126	     11.60396237	     -0.56828787	     -9.05306113	      9.36099575	    -12.58022904	      0.00000000	     -8.24945583	     -8.65298299	     -1.42515513
      6.19000000	     -2.35955308	      6.86250151	     -5.23204803	      1.99934674	      1.03113893	     -0.29633854	     19.30756594	    -10.91557436	     -6.34015860	    -65.87359367	      8.34755520	      1.92241986	      0.00000000	      6.02786148	     11.52914574	      0.14275068	     -8.52550421	      9.14091432	    -13.06510857	      0.00000000	     -8.39936828	     -8.35378617	     -1.79844938
      6.19500000	     -2.30366816	      6.65260853	     -5.02235701	      2.00551071	      1.03178979	     -0.29671416	     19.73278665	    -10.64131194	     -6.60635996	    -65.50199239	      9.11106154	      2.00657570	      0.00000000	      5.30855057	     11.39700220	      0.59219730	     -8.05710446	      9.02925962	    -13.34745107	      0.00000000	     -8.48007980	     -8.04917264	     -2.07294855
      6.20000000	     -2.23925833	      6.44953094	     -4.82040659	      2.01164399	      1.03238132	     -0.29706586	     20.14185653	    -10.37196073	     -6.87123647	    -65.07360837	      9.86672064	      2.08947924	      0.00000000	      4.57292168	     11.26326821	      1.09183582	     -7.57137145	      8.93053463	    -13.64782704	      0.00000000	     -8.57216906	     -7.75839259	     -2.31293247
      6.20500000	     -2.19702307	      6.24181572	     -4.60546083	      2.01774206	      1.03292552	     -0.29740936	     20.55482020	    -10.09278794	     -7.13484244	    -64.57661414	     10.62164753	      2.22589944	      0.00000000	      3.87583770	     11.11450327	      1.51298553	     -7.10315449	      8.83086705	    -13.90251687	      0.00000000	     -8.64379442	     -7.45942412	     -2.58906935
